<?xml version="1.0" encoding="UTF-8" standalone="no"?>
<svg
   xmlns:dc="http://purl.org/dc/elements/1.1/"
   xmlns:cc="http://creativecommons.org/ns#"
   xmlns:rdf="http://www.w3.org/1999/02/22-rdf-syntax-ns#"
   xmlns:svg="http://www.w3.org/2000/svg"
   xmlns="http://www.w3.org/2000/svg"
   xmlns:sodipodi="http://sodipodi.sourceforge.net/DTD/sodipodi-0.dtd"
   xmlns:inkscape="http://www.inkscape.org/namespaces/inkscape"
   id="Capa_1"
   enable-background="new 0 0 512 512"
   height="512px"
   viewBox="0 0 512 512"
   width="512px"
   class=""
   version="1.1"
   sodipodi:docname="resume.svg"
   inkscape:version="0.92.3 (2405546, 2018-03-11)">
  <metadata
     id="metadata1038">
    <rdf:RDF>
      <cc:Work
         rdf:about="">
        <dc:format>image/svg+xml</dc:format>
        <dc:type
           rdf:resource="http://purl.org/dc/dcmitype/StillImage" />
        <dc:title></dc:title>
      </cc:Work>
    </rdf:RDF>
  </metadata>
  <defs
     id="defs1036" />
  <sodipodi:namedview
     pagecolor="#ffffff"
     bordercolor="#666666"
     borderopacity="1"
     objecttolerance="10"
     gridtolerance="10"
     guidetolerance="10"
     inkscape:pageopacity="0"
     inkscape:pageshadow="2"
     inkscape:window-width="1920"
     inkscape:window-height="1024"
     id="namedview1034"
     showgrid="false"
     inkscape:zoom="1.3037281"
     inkscape:cx="204.56924"
     inkscape:cy="255.04232"
     inkscape:window-x="0"
     inkscape:window-y="0"
     inkscape:window-maximized="1"
     inkscape:current-layer="Capa_1" />
  <g
     transform="matrix(0.99 0 0 0.99 2.56 2.56)"
     id="g1031">
    <g
       id="g1029">
      <g
         id="g1027">
        <path
           d="m404.288 274.636h-260.691c-4.142 0-7.499 3.358-7.499 7.499s3.358 7.499 7.499 7.499h260.692c4.142 0 7.499-3.358 7.499-7.499s-3.358-7.499-7.5-7.499z"
           data-original="#000000"
           class="active-path"
           data-old_color="#000000"
           fill="#777777"
           id="path1011" />
        <path
           d="m404.288 322.961h-260.691c-4.142 0-7.499 3.358-7.499 7.499s3.358 7.499 7.499 7.499h260.692c4.142 0 7.499-3.358 7.499-7.499s-3.358-7.499-7.5-7.499z"
           data-original="#000000"
           class="active-path"
           data-old_color="#000000"
           fill="#777777"
           id="path1013" />
        <path
           d="m404.288 371.286h-260.691c-4.142 0-7.499 3.358-7.499 7.499s3.358 7.499 7.499 7.499h260.692c4.142 0 7.499-3.358 7.499-7.499s-3.358-7.499-7.5-7.499z"
           data-original="#000000"
           class="active-path"
           data-old_color="#000000"
           fill="#777777"
           id="path1015" />
        <path
           d="m404.288 419.611h-260.691c-4.142 0-7.499 3.358-7.499 7.499s3.358 7.499 7.499 7.499h260.692c4.142 0 7.499-3.358 7.499-7.499s-3.358-7.499-7.5-7.499z"
           data-original="#000000"
           class="active-path"
           data-old_color="#000000"
           fill="#777777"
           id="path1017" />
        <path
           d="m404.288 175.702h-95.793c-4.142 0-7.499 3.358-7.499 7.499s3.358 7.499 7.499 7.499h95.793c4.142 0 7.499-3.358 7.499-7.499s-3.357-7.499-7.499-7.499z"
           data-original="#000000"
           class="active-path"
           data-old_color="#000000"
           fill="#777777"
           id="path1019" />
        <path
           d="m404.288 136.06h-95.793c-4.142 0-7.499 3.358-7.499 7.499s3.358 7.499 7.499 7.499h95.793c4.142 0 7.499-3.358 7.499-7.499s-3.357-7.499-7.499-7.499z"
           data-original="#000000"
           class="active-path"
           data-old_color="#000000"
           fill="#777777"
           id="path1021" />
        <path
           d="m456.229 417.08c4.142 0 7.499-3.358 7.499-7.499v-336.333c0-16.262-13.23-29.492-29.492-29.492h-14.264v-14.264c.001-16.262-13.229-29.492-29.491-29.492h-312.717c-16.262 0-29.492 13.23-29.492 29.492v409.26c0 16.262 13.23 29.492 29.492 29.492h14.263v14.263c0 16.262 13.23 29.492 29.492 29.492h312.716c16.262 0 29.492-13.23 29.492-29.492v-37.867c0-4.142-3.358-7.499-7.499-7.499s-7.499 3.358-7.499 7.499v37.868c0 7.992-6.502 14.493-14.493 14.493h-312.716c-7.992 0-14.493-6.501-14.493-14.493v-409.26c0-7.992 6.502-14.493 14.493-14.493h312.716c7.992 0 14.493 6.502 14.493 14.493v336.333c0 4.141 3.358 7.499 7.5 7.499zm-364.202-343.832v379.998h-14.263c-7.992 0-14.493-6.502-14.493-14.493v-409.261c0-7.992 6.502-14.493 14.493-14.493h312.717c7.992 0 14.493 6.502 14.493 14.493v14.263h-283.454c-16.262.001-29.493 13.231-29.493 29.493z"
           data-original="#000000"
           class="active-path"
           data-old_color="#000000"
           fill="#777777"
           id="path1023" />
        <path
           d="m142.996 148.151c-4.142 0-7.499 3.358-7.499 7.499v56.637c0 11.761 8.793 21.561 20.466 22.826 2.829.309 83.658.011 83.778.01.027-.003.055-.006.082-.009 11.679-1.26 20.477-11.062 20.477-22.827v-97.813c0-12.661-10.3-22.961-22.961-22.961h-78.882c-12.661 0-22.961 10.3-22.961 22.961v5.871c0 4.142 3.358 7.499 7.499 7.499s7.499-3.358 7.499-7.499v-5.871c0-4.39 3.572-7.962 7.962-7.962h78.882c4.39 0 7.962 3.571 7.962 7.962v76.779c-5.73-6.069-12.601-11.009-20.28-14.509 3.219-5.071 5.004-11.012 5.004-17.208 0-17.714-14.412-32.126-32.127-32.126-17.714 0-32.126 14.412-32.126 32.126 0 6.197 1.785 12.137 5.004 17.208-7.68 3.5-14.551 8.44-20.281 14.51v-35.604c.001-4.142-3.356-7.499-7.498-7.499zm54.902-5.743c9.445 0 17.128 7.683 17.128 17.128 0 5.721-2.842 11.043-7.601 14.237-2.819 1.891-6.113 2.891-9.527 2.891s-6.708-.999-9.526-2.891c-4.76-3.194-7.601-8.516-7.601-14.237 0-9.445 7.683-17.128 17.127-17.128zm-14.739 45.655c4.538 2.35 9.563 3.599 14.739 3.599 5.175 0 10.2-1.249 14.739-3.599 14.197 4.34 25.686 14.707 31.484 28.409-1.251 2.034-3.396 3.464-5.93 3.731-.484.03-79.274.11-80.414.016l-.164-.015c-.004 0-.008-.001-.012-.001-2.533-.268-4.676-1.698-5.927-3.731 5.799-13.702 17.288-24.069 31.485-28.409z"
           data-original="#000000"
           class="active-path"
           data-old_color="#000000"
           fill="#777777"
           id="path1025" />
      </g>
    </g>
  </g>
  <path
     style="fill:#00a3e1;fill-opacity:0.99215686;stroke:#00a3e1;stroke-width:0.76703107;stroke-opacity:1"
     d="m 118.42737,508.62601 c -9.1153,-1.33307 -17.80507,-7.95273 -21.881837,-16.66906 -1.843756,-3.94204 -2.061138,-5.37707 -2.302516,-15.19973 L 93.976475,465.91051 83.116425,465.6106 C 73.405733,465.34244 71.809898,465.10143 68.037704,463.33336 59.066545,459.12847 52.857632,450.96923 51.190912,441.1947 50.580333,437.61394 50.403026,378.50797 50.560464,231.03203 L 50.779505,25.851217 52.570359,21.414264 C 54.940144,15.542974 61.453674,8.5355813 67.134469,5.745885 L 71.489344,3.6073152 H 234.48345 397.47756 l 4.79554,2.6005743 c 5.82839,3.1606651 10.38285,7.9425595 13.10201,13.7562515 1.8441,3.942782 2.06112,5.376302 2.30276,15.211244 l 0.26678,10.858231 10.4763,0.310662 c 13.23186,0.392376 17.37303,1.810639 23.81526,8.156237 4.89349,4.820081 7.3459,9.256533 8.50998,15.394728 0.51176,2.698481 0.77748,61.553737 0.77559,171.788157 -0.003,164.85534 -0.0281,167.7247 -1.49747,170.13459 -2.68532,4.40403 -9.50662,4.13855 -11.88596,-0.46261 -1.06098,-2.0517 -1.18908,-20.23176 -1.20413,-170.88913 -0.0163,-163.003386 -0.0644,-168.697846 -1.45058,-171.750336 -0.78855,-1.736441 -2.73877,-4.152589 -4.33383,-5.369217 l -2.90009,-2.21205 -159.60222,-0.200951 c -117.20362,-0.147568 -160.16038,0.02906 -161.70328,0.664899 -3.01322,1.241758 -7.24875,6.224514 -8.19855,9.644924 -1.16539,4.196818 -1.14161,408.257041 0.0243,412.525251 1.18917,4.35346 4.20867,8.00123 8.01792,9.68625 3.18533,1.40902 7.77534,1.44447 161.98303,1.25115 l 158.70482,-0.19896 2.69749,-1.84841 c 1.48363,-1.01663 3.52929,-3.06118 4.54592,-4.54346 1.82787,-2.66511 1.85266,-2.94993 2.23192,-25.64074 l 0.38352,-22.9457 2.1521,-1.84978 c 2.84544,-2.44573 6.65714,-2.44561 9.50235,2.8e-4 l 2.15211,1.85005 0.24095,20.5856 c 0.15713,13.42402 -0.0678,22.17777 -0.64657,25.16222 -2.41806,12.469 -12.03799,21.63049 -24.62338,23.44995 -6.18272,0.89383 -311.54607,0.79655 -317.68477,-0.10121 z M 94.116761,259.7957 94.500277,68.037926 96.646788,63.43574 C 99.46409,57.395358 105.37165,51.46251 111.29475,48.725082 l 4.6824,-2.164026 144.08868,-0.201605 144.08869,-0.201605 -0.27036,-9.512673 c -0.25939,-9.126758 -0.36413,-9.647575 -2.58171,-12.837924 -1.3509,-1.943495 -3.72922,-4.042387 -5.7235,-5.05107 l -3.41215,-1.72582 H 234.48345 76.800099 l -3.377947,1.72582 c -1.85787,0.949201 -4.433447,3.052211 -5.723502,4.673355 L 65.353095,26.377069 65.15715,233.09245 c -0.190657,201.13601 -0.156888,206.80368 1.251152,209.98679 1.708224,3.86173 5.528616,7.00558 9.732543,8.00905 1.660345,0.39632 6.297868,0.66312 10.305605,0.59288 l 7.286796,-0.1277 z"
     id="path1587"
     inkscape:connector-curvature="0" />
  <path
     style="fill:#00a3e1;fill-opacity:0.99215686;stroke:#00a3e1;stroke-width:0.76703107;stroke-opacity:1"
     d="m 149.47656,232.51175 c -5.4806,-2.73869 -8.75812,-6.3677 -10.88757,-12.05517 -1.42163,-3.79699 -1.51849,-6.0391 -1.51849,-35.15068 v -31.09498 l 2.24209,-2.24209 c 2.93028,-2.93028 6.96124,-3.0799 9.68176,-0.35938 l 1.88271,1.88271 v 19.21065 c 0,10.56585 0.20816,19.21064 0.46258,19.21064 0.25441,0 2.1856,-1.54915 4.29153,-3.44257 2.10592,-1.89341 6.47119,-5.0645 9.70059,-7.04687 3.22939,-1.98237 5.99743,-3.69426 6.15119,-3.8042 0.15376,-0.10993 -0.48134,-1.77169 -1.41133,-3.6928 -3.88511,-8.02557 -3.87062,-18.49545 0.0372,-26.88488 2.29434,-4.92555 9.97556,-12.60676 14.9011,-14.90111 12.66753,-5.90059 26.67457,-3.07997 36.41542,7.33303 5.40502,5.77798 7.73768,11.27307 8.25952,19.45706 0.34866,5.46811 -0.82471,10.75688 -3.92625,17.69685 -0.38075,0.85198 0.067,1.48173 1.52638,2.14665 3.38524,1.54242 10.01071,6.1547 14.02265,9.76178 2.06586,1.85738 3.96427,3.37706 4.21868,3.37706 0.25442,0 0.46258,-17.26929 0.46258,-38.37619 0,-42.89276 0.009,-42.80912 -4.93346,-44.87429 -4.05443,-1.69405 -81.50877,-1.66912 -85.08389,0.0274 -3.45515,1.63958 -4.43259,3.67303 -5.01322,10.4295 -0.5642,6.56528 -1.7984,8.7114 -5.47406,9.51871 -2.80206,0.61543 -6.71302,-1.38443 -7.67971,-3.927 -1.27818,-3.36188 -0.86102,-12.17276 0.78441,-16.56749 2.12945,-5.68747 5.40697,-9.316473 10.88757,-12.055162 l 4.71365,-2.35544 h 44.24278 44.24278 l 4.69396,2.345603 c 4.97456,2.485816 7.60328,5.081019 10.35307,10.221069 l 1.68916,3.15747 v 54.84272 54.84272 l -1.68916,3.15746 c -2.74979,5.14006 -5.37851,7.73526 -10.35307,10.22107 l -4.69396,2.34561 h -44.24278 -44.24278 z m 91.56208,-12.56704 c 1.46891,-0.61374 2.86842,-1.63104 3.11002,-2.26064 0.82352,-2.14604 -4.53331,-10.6817 -10.42796,-16.61608 -4.34753,-4.37684 -7.33955,-6.59131 -12.17719,-9.01262 -3.52741,-1.76553 -6.97754,-3.20559 -7.66696,-3.20015 -0.68942,0.005 -3.44151,0.69577 -6.11577,1.53406 -5.85492,1.83533 -11.37858,1.93981 -17.0227,0.32198 -7.73449,-2.21699 -8.06462,-2.20242 -13.97067,0.61683 -9.56016,4.56356 -17.24494,11.88855 -22.39004,21.34179 -2.28014,4.18938 -2.03589,5.48444 1.34928,7.15388 3.52812,1.73993 81.17375,1.85002 85.31199,0.12095 z m -37.93652,-42.93274 c 3.47616,-0.58345 8.68624,-4.98995 10.8194,-9.15066 3.23768,-6.31505 1.6411,-14.79892 -3.72106,-19.77283 -3.54728,-3.29044 -6.70643,-4.49799 -11.76747,-4.49799 -9.75332,0 -16.87469,6.95702 -16.87469,16.48525 0,6.89622 3.22908,12.58944 8.82086,15.55214 2.55198,1.35212 7.04569,2.40439 8.82086,2.06555 0.6328,-0.1208 2.38874,-0.42745 3.9021,-0.68146 z"
     id="path1589"
     inkscape:connector-curvature="0" />
  <path
     style="fill:#00a3e1;fill-opacity:0.99215686;stroke:#00a3e1;stroke-width:0.76703107;stroke-opacity:1"
     d="m 305.32414,151.27589 c -2.45016,-1.00163 -4.10899,-3.836 -4.10899,-7.02086 0,-2.21768 0.51014,-3.25852 2.35995,-4.81503 l 2.35994,-1.98576 h 49.40256 49.40255 l 2.4666,2.20391 c 3.27396,2.92528 3.42412,6.85167 0.3785,9.89775 l -2.08809,2.08841 -49.26464,0.15178 c -27.09555,0.0835 -50.00432,-0.15062 -50.90838,-0.5202 z"
     id="path1591"
     inkscape:connector-curvature="0" />
  <path
     style="fill:#00a3e1;fill-opacity:0.99215686;stroke:#00a3e1;stroke-width:0.76703107;stroke-opacity:1"
     d="m 303.5751,189.16065 c -3.06368,-2.57791 -3.27898,-6.83165 -0.50878,-10.0522 l 1.85116,-2.15211 h 50.24516 50.24515 l 1.91448,1.79856 c 1.05296,0.9892 2.12616,2.64199 2.38489,3.67286 0.62824,2.50311 -1.46498,6.75168 -3.86531,7.84535 -1.36941,0.62394 -15.90706,0.87331 -50.91176,0.87331 h -48.99505 z"
     id="path1593"
     inkscape:connector-curvature="0" />
  <path
     style="fill:#00a3e1;fill-opacity:0.99215686;stroke:#00a3e1;stroke-width:0.76703107;stroke-opacity:1"
     d="m 142.66585,288.48163 c -5.15441,-1.49979 -6.51778,-7.55519 -2.58623,-11.48674 l 2.24209,-2.24209 h 130.8759 c 143.24071,0 134.13943,-0.29744 136.10509,4.44809 1.16723,2.81792 0.46127,5.64955 -1.98035,7.94343 l -1.91441,1.79856 -130.14181,0.12705 c -78.63359,0.0768 -131.11483,-0.15607 -132.60028,-0.5883 z"
     id="path1595"
     inkscape:connector-curvature="0" />
  <path
     style="fill:#00a3e1;fill-opacity:0.99215686;stroke:#00a3e1;stroke-width:0.76703107;stroke-opacity:1"
     d="m 140.07962,334.64023 c -4.31652,-4.31652 -2.13367,-10.82427 4.00022,-11.9259 1.4182,-0.25471 60.78877,-0.36387 131.9346,-0.24259 128.11976,0.2184 129.37232,0.23517 131.05858,1.75457 2.52574,2.27581 3.24852,4.77661 2.25265,7.79413 -1.72455,5.22546 8.4552,4.86188 -136.12806,4.86188 h -130.8759 z"
     id="path1597"
     inkscape:connector-curvature="0" />
  <path
     style="fill:#00a3e1;fill-opacity:0.99215686;stroke:#00a3e1;stroke-width:0.76703107;stroke-opacity:1"
     d="m 139.85971,382.41608 c -1.4615,-1.4615 -2.02218,-2.81486 -2.02218,-4.88111 0,-2.06626 0.56068,-3.41961 2.02218,-4.88111 l 2.02217,-2.02217 h 131.65408 c 144.45085,0 133.77545,-0.35934 135.81792,4.57164 0.77638,1.87434 0.77638,2.78894 0,4.66328 -2.04247,4.93097 8.63293,4.57164 -135.81792,4.57164 H 141.88188 Z"
     id="path1603"
     inkscape:connector-curvature="0" />
  <path
     style="fill:#00a3e1;fill-opacity:0.99215686;stroke:#00a3e1;stroke-width:0.76703107;stroke-opacity:1"
     d="m 141.50021,431.56919 c -4.07999,-2.22122 -4.91743,-7.23507 -1.81156,-10.84595 l 1.85112,-2.15211 131.03702,-0.20157 c 94.33317,-0.14512 131.61277,0.0358 133.09253,0.64604 2.50161,1.03156 4.68734,5.30288 4.03784,7.89068 -0.25873,1.03086 -1.3319,2.68365 -2.38484,3.67285 l -1.91441,1.79856 -130.90882,0.16469 c -114.47717,0.14401 -131.17117,0.0219 -132.99888,-0.97319 z"
     id="path1605"
     inkscape:connector-curvature="0" />
</svg>
