<?xml version="1.0" encoding="UTF-8" standalone="no"?>
<svg
   xmlns:dc="http://purl.org/dc/elements/1.1/"
   xmlns:cc="http://creativecommons.org/ns#"
   xmlns:rdf="http://www.w3.org/1999/02/22-rdf-syntax-ns#"
   xmlns:svg="http://www.w3.org/2000/svg"
   xmlns="http://www.w3.org/2000/svg"
   xmlns:sodipodi="http://sodipodi.sourceforge.net/DTD/sodipodi-0.dtd"
   xmlns:inkscape="http://www.inkscape.org/namespaces/inkscape"
   version="1.1"
   id="Capa_1"
   x="0px"
   y="0px"
   viewBox="0 0 428.439 428.439"
   style="enable-background:new 0 0 428.439 428.439;"
   xml:space="preserve"
   width="512px"
   height="512px"
   class=""
   sodipodi:docname="portfolio.svg"
   inkscape:version="0.92.5 (2060ec1f9f, 2020-04-08)"><metadata
   id="metadata4576"><rdf:RDF><cc:Work
       rdf:about=""><dc:format>image/svg+xml</dc:format><dc:type
         rdf:resource="http://purl.org/dc/dcmitype/StillImage" /><dc:title></dc:title></cc:Work></rdf:RDF></metadata><defs
   id="defs4574" /><sodipodi:namedview
   pagecolor="#ffffff"
   bordercolor="#666666"
   borderopacity="1"
   objecttolerance="10"
   gridtolerance="10"
   guidetolerance="10"
   inkscape:pageopacity="0"
   inkscape:pageshadow="2"
   inkscape:window-width="1366"
   inkscape:window-height="719"
   id="namedview4572"
   showgrid="false"
   inkscape:zoom="1.046875"
   inkscape:cx="102.20896"
   inkscape:cy="256"
   inkscape:window-x="0"
   inkscape:window-y="0"
   inkscape:window-maximized="1"
   inkscape:current-layer="Capa_1" /><g
   transform="matrix(0.99 0 0 0.99 2.14219 2.14219)"
   id="g4569"><g
     id="g4567">
	<g
   id="g4565">
		<path
   d="M428.423,361.027V123.313c0.595-21.344-16.225-39.129-37.569-39.724c-0.886-0.025-1.774-0.019-2.66,0.017h-85.159V67.411    c0.577-22.21-16.96-40.683-39.17-41.26c-0.353-0.009-0.706-0.014-1.058-0.014h-97.176c-22.218-0.008-40.235,17.997-40.242,40.215    c0,0.353,0.004,0.706,0.014,1.058v16.196H40.244C18.909,82.733,0.906,99.319,0.032,120.653c-0.036,0.886-0.042,1.773-0.017,2.66    v237.714c-0.577,22.21,16.96,40.683,39.17,41.26c0.353,0.009,0.706,0.014,1.058,0.014h347.951    c22.218,0.008,40.235-17.997,40.242-40.215C428.437,361.733,428.432,361.38,428.423,361.027z M164.558,47.064    c0.357-0.019,0.715-0.029,1.073-0.028h97.176c10.676-0.016,19.343,8.626,19.359,19.302c0.001,0.358-0.009,0.716-0.028,1.073    v16.196H146.301V67.411C145.724,56.751,153.898,47.641,164.558,47.064z M389.268,381.375c-0.357,0.019-0.715,0.029-1.073,0.028    H40.244c-10.676,0.016-19.343-8.626-19.359-19.302c-0.001-0.358,0.009-0.716,0.028-1.073v-68.441    c5.73,3.739,12.497,5.568,19.331,5.225h106.057v30.302c0.967,6.298,6.181,11.078,12.539,11.494h110.759    c6.358-0.416,11.572-5.196,12.539-11.494v-30.302h106.057c6.834,0.344,13.601-1.485,19.331-5.225v68.441    C408.102,371.688,399.928,380.798,389.268,381.375z M167.199,318.709v-52.245h94.041v52.245H167.199z M389.268,276.885    c-0.357,0.019-0.715,0.029-1.073,0.028H282.137v-22.465c0-5.747-6.792-8.882-12.539-8.882H158.84    c-5.747,0-12.539,3.135-12.539,8.882v22.465H40.244c-10.676,0.016-19.343-8.626-19.359-19.302    c-0.001-0.358,0.009-0.716,0.028-1.073V123.313c-0.617-9.791,6.82-18.228,16.611-18.845c0.906-0.057,1.816-0.045,2.72,0.037    h347.951c9.77-0.885,18.408,6.318,19.293,16.088c0.082,0.904,0.094,1.814,0.037,2.72v133.224    C408.102,267.198,399.928,276.308,389.268,276.885z"
   data-original="#000000"
   class=""
   data-old_color="#000000"
   fill="#777777"
   id="path4563" />
	</g>
</g></g> <path
   style="fill:#00a3e1;stroke-width:0.95522386"
   d="M 35.703315,475.62907 C 20.263455,470.36453 9.4173088,459.08598 4.787127,443.48036 3.4001636,438.80571 3.2477612,423.51737 3.2477612,289.058 c 0,-143.48819 0.06929,-149.45669 1.7996379,-155.0163 2.527966,-8.12238 5.7003729,-13.1127 12.3938049,-19.49597 6.778284,-6.46419 15.154806,-10.68337 24.015512,-12.09638 3.725981,-0.59418 26.93224,-0.99303 58.029851,-0.99736 l 51.820893,-0.007 V 89.073883 c 0,-14.390438 1.00984,-20.152397 5.0306,-28.703734 3.64914,-7.760968 13.35275,-17.719855 20.78302,-21.329771 11.07957,-5.382888 13.46255,-5.533081 82.51563,-5.200767 61.9741,0.298247 63.23345,0.341671 68.57976,2.364758 8.28004,3.133229 13.34527,6.447886 19.14512,12.528412 10.064,10.551048 13.1399,19.806831 13.1399,39.539552 v 13.172447 l 51.34329,0.0189 c 28.41005,0.0105 54.32993,0.439 58.02985,0.9594 14.76563,2.07681 27.71888,11.60783 34.54399,25.41749 l 3.66496,7.41555 v 153.84059 153.84058 l -3.55539,7.44591 c -6.15624,12.89276 -16.6949,21.90268 -30.28962,25.89582 -4.68267,1.37543 -26.00092,1.52154 -218.74627,1.49928 L 41.934328,477.75367 Z M 471.82411,451.6615 c 2.64833,-1.23323 5.99559,-3.6451 7.43835,-5.35972 5.46354,-6.49305 5.41814,-6.04362 5.41814,-53.63037 0,-24.10301 -0.16298,-43.82365 -0.36219,-43.82365 -0.19919,0 -2.88576,1.18209 -5.97014,2.62687 l -5.60797,2.62686 -68.53731,0.26897 -68.53732,0.26899 v 19.41065 c 0,18.55646 -0.0948,19.55122 -2.1525,22.60475 -1.18388,1.75676 -3.65552,4.07704 -5.49254,5.15619 -3.28577,1.93022 -4.45745,1.96209 -72.11615,1.96209 -76.47256,0 -72.217,0.35528 -77.05902,-6.43334 -2.13092,-2.98761 -2.23688,-3.95325 -2.51699,-22.93979 l -0.29242,-19.8209 -66.09564,-0.0113 c -68.933722,-0.0118 -70.932068,-0.1169 -78.704914,-4.13838 -1.681373,-0.86989 -3.293313,-1.58163 -3.582089,-1.58163 -0.288777,0 -0.525049,19.57201 -0.525049,43.49337 0,47.00404 -0.0389,46.60777 5.256576,53.55049 1.282488,1.68143 4.577467,4.17621 7.322178,5.54396 l 4.990382,2.48681 211.155726,-0.01 211.15574,-0.01 4.81515,-2.24222 z M 311.78507,348.84776 v -31.52239 h -55.88059 -55.8806 v 31.52239 31.52239 h 55.8806 55.88059 z M 176.14328,315.96583 c 0,-14.41971 0.0521,-14.79452 2.44947,-17.6437 1.3472,-1.60106 4.03376,-3.35104 5.97014,-3.88886 4.76311,-1.32291 137.86775,-1.33748 142.62666,-0.0156 1.90529,0.52922 4.59186,2.08993 5.97015,3.46821 2.4942,2.49421 2.50597,2.57725 2.50597,17.68449 v 15.17851 l 66.14926,-0.26399 c 62.74017,-0.25039 66.33732,-0.3574 69.79863,-2.07641 4.81732,-2.39245 9.12767,-6.80206 11.27974,-11.53952 1.64829,-3.62847 1.74651,-8.61094 1.76632,-89.6115 0.0204,-83.0388 -0.038,-85.8851 -1.8332,-89.40387 -2.06139,-4.04066 -7.59785,-9.30856 -11.23744,-10.69232 -1.46192,-0.55582 -84.2521,-0.90181 -215.79182,-0.90181 -208.560718,0 -213.501066,0.0418 -216.984651,1.83353 -1.960612,1.00845 -4.724034,3.055 -6.140941,4.54789 -5.791937,6.10251 -5.54321,1.84459 -5.54321,94.89342 0,93.84027 -0.32086,88.75617 6.018561,95.36508 3.133225,3.26642 6.939191,5.61986 11.169285,6.90659 1.316834,0.40057 31.516632,0.76524 67.110666,0.81041 l 64.71641,0.0821 z M 336.61156,88.78806 c -0.009,-11.286247 -0.25355,-13.181204 -2.26483,-17.500526 -1.24053,-2.664096 -3.9229,-6.222712 -5.96082,-7.908035 -7.0997,-5.871318 -7.14486,-5.875021 -71.65257,-5.875021 -38.03175,0 -60.19786,0.358577 -63.30064,1.024003 -6.19949,1.329554 -11.71432,5.395298 -15.0763,11.114826 -2.55296,4.34321 -2.70754,5.274537 -3.0191,18.189529 l -0.32837,13.611944 h 80.80599 80.80598 l -0.01,-12.65672 z"
   id="path4578"
   inkscape:connector-curvature="0"
   transform="scale(0.83679492)" /><path
   style="fill:#00a3e1;stroke-width:0.95522386"
   d="M 37.731343,475.96104 C 19.191764,469.35292 7.1325784,456.031 4.7463673,439.52214 3.5909559,431.52849 3.5675476,146.92469 4.7216454,138.9453 c 1.2803315,-8.85217 4.8535844,-15.73026 11.7600536,-22.63673 6.334108,-6.33411 13.291962,-10.46801 21.249644,-12.62514 3.61465,-0.97985 18.074955,-1.44729 59.462687,-1.92217 l 54.68657,-0.62748 V 88.918386 c 0,-6.718468 0.47502,-14.49327 1.0556,-17.277339 1.7721,-8.497782 6.13908,-16.420461 12.74796,-23.127666 7.28583,-7.394236 15.0837,-11.597649 24.11443,-12.998816 4.25502,-0.660188 28.94312,-0.915809 70.98948,-0.735026 l 64.46566,0.277177 7.5282,3.594467 c 5.47939,2.616236 9.15334,5.251935 13.49976,9.684764 10.6375,10.849007 13.77991,20.446713 13.81879,42.206111 l 0.0189,10.589822 54.23036,0.62971 c 58.45776,0.67879 59.90524,0.80271 70.17673,6.00767 7.25764,3.67772 15.9428,12.84992 20.13732,21.26654 l 3.51529,7.05371 v 153.11081 153.1108 l -4.01405,7.82892 c -5.34557,10.42587 -12.56374,17.7124 -22.32893,22.54039 l -7.46292,3.68972 -53.54481,0.6074 c -29.44965,0.33406 -126.61943,0.62504 -215.93287,0.64662 -153.405695,0.0371 -162.652245,-0.0549 -167.164177,-1.66313 z M 473.55101,451.02913 c 7.39058,-4.23845 9.83987,-8.53121 10.90044,-19.10469 0.94194,-9.39083 0.70321,-81.58618 -0.27301,-82.56087 -0.32873,-0.3282 -3.06878,0.4961 -6.08901,1.83179 l -5.49133,2.42852 h -38.41193 c -21.12657,0 -51.99878,0.28385 -68.60493,0.63079 l -30.193,0.63079 -0.29114,19.85563 -0.29113,19.85562 -3.30975,3.41263 c -1.82252,1.87919 -4.96068,3.8572 -6.98382,4.40197 -5.6489,1.52109 -138.06476,0.7824 -140.80418,-0.78549 -1.14555,-0.65565 -3.07988,-2.58998 -4.29851,-4.29851 -2.117,-2.96805 -2.23004,-3.98924 -2.53796,-22.92731 l -0.32228,-19.8209 -49.34936,-0.0618 c -27.14215,-0.034 -58.376229,-0.39344 -69.409065,-0.79875 -17.474825,-0.64194 -20.657754,-1.00225 -24.700834,-2.79604 -2.552622,-1.13252 -5.024264,-1.82235 -5.492537,-1.53294 -1.127297,0.69671 -1.068585,77.45152 0.06524,85.29407 1.126849,7.79427 4.324252,12.6397 10.786075,16.34552 l 5.013693,2.87533 H 256 468.53731 l 5.0137,-2.87533 z M 312.35821,348.84776 V 317.32537 H 256 199.64179 v 31.52239 31.52239 H 256 312.35821 Z M 176.71642,316.10508 c 0,-16.10208 0.4088,-17.48969 6.02813,-20.46144 2.77794,-1.46909 9.2355,-1.61111 73.25545,-1.61111 64.01995,0 70.47751,0.14202 73.25545,1.61111 5.62203,2.97318 6.02813,4.35485 6.02813,20.50939 v 14.64137 l 66.62687,-0.29287 c 48.45601,-0.213 67.31434,-0.59938 69.14761,-1.41679 4.00613,-1.78621 9.35335,-6.94271 11.60524,-11.19131 2.07008,-3.9056 2.0736,-4.02496 2.39186,-81.28447 0.17529,-42.55523 -0.0682,-82.18677 -0.54111,-88.07011 -0.83072,-10.33475 -0.9769,-10.83983 -4.31729,-14.91634 -6.65667,-8.12359 16.42728,-7.39326 -224.84045,-7.11341 -199.992698,0.23198 -214.963005,0.36069 -217.721975,1.87196 -4.3655,2.39125 -8.777083,7.86459 -9.646921,11.96867 -1.001245,4.72408 -0.994756,169.67447 0.0069,174.40577 1.017299,4.80538 6.635654,10.9109 12.60274,13.69551 l 4.77612,2.22883 65.671646,0.01 65.67164,0.01 V 316.10552 Z M 337.01699,88.223722 c -0.40148,-12.579956 -0.56277,-13.471606 -3.32606,-18.38806 -3.55609,-6.326991 -8.69527,-10.098272 -15.49295,-11.369197 -3.09852,-0.579311 -28.40217,-0.961987 -63.60938,-0.961987 -63.31385,0 -63.96804,0.04814 -70.72977,5.205575 -1.80341,1.375525 -4.42706,4.460111 -5.83035,6.854638 -2.36384,4.033588 -2.58579,5.365601 -3.01867,18.116885 l -0.46725,13.763204 h 81.44818 81.44818 z"
   id="path4580"
   inkscape:connector-curvature="0"
   transform="scale(0.83679492)" /><path
   style="fill:#00a3e1;stroke-width:0.95522386"
   d="M 37.731343,475.96104 C 19.013182,469.28928 7.151276,456.1509 4.7303409,439.40875 3.590013,431.52274 3.5817739,146.82633 4.7216454,138.9453 6.6922782,125.32042 16.280452,113.10328 30.185197,106.49995 l 7.417368,-3.52249 19.646479,-0.70103 c 10.805563,-0.38557 36.51812,-0.73042 57.139016,-0.76634 l 37.49254,-0.0653 V 89.157244 c 0,-6.758143 0.43212,-14.602919 0.96026,-17.432836 1.52026,-8.145859 6.25571,-16.695157 12.96204,-23.401496 7.02832,-7.028309 14.87826,-11.308458 23.44409,-12.782775 4.13854,-0.71231 26.9559,-0.958413 71.05152,-0.766346 l 64.95522,0.282925 7.5282,3.594467 c 13.82813,6.602487 24.12029,19.936814 26.34868,34.136877 0.5359,3.414925 0.97761,11.191307 0.98158,17.280848 l 0.008,11.071892 53.73135,0.57649 c 35.07557,0.37633 55.55546,0.96294 58.98507,1.68953 13.00443,2.75509 24.83746,12.23516 31.79254,25.47069 l 3.55031,6.75709 v 153.5055 153.5055 l -3.95465,7.60135 c -5.31626,10.21853 -12.75106,17.6686 -22.38744,22.43348 l -7.46204,3.68972 -40.65017,0.60338 c -22.3576,0.33185 -119.52779,0.62283 -215.93376,0.64662 -165.781547,0.0409 -175.542488,-0.049 -180.059697,-1.65911 z M 473.52245,450.81791 c 11.22234,-7.11501 11.21881,-7.09662 11.23798,-58.66655 0.009,-23.2039 -0.24063,-42.44529 -0.55389,-42.75863 -0.31328,-0.31335 -3.0121,0.51049 -5.99739,1.83072 -5.37118,2.37538 -5.70406,2.40044 -31.90803,2.40161 -14.56412,6.5e-4 -45.50112,0.28562 -68.74888,0.63327 l -42.26866,0.6321 v 18.56565 c 0,21.02317 -0.5952,23.49482 -6.54945,27.19752 l -3.4804,2.16431 h -69.77397 c -65.0528,0 -69.94794,-0.11401 -72.34492,-1.68495 -5.582,-3.65836 -5.9123,-5.06583 -6.26309,-26.68851 l -0.32228,-19.86535 -52.69265,-0.0615 c -67.001414,-0.0782 -84.420349,-0.77088 -90.810409,-3.61083 -2.576711,-1.14518 -4.94089,-1.82556 -5.253731,-1.51197 -0.31284,0.31357 -0.568799,19.98445 -0.568799,43.71305 v 43.14291 l 2.676196,5.44977 c 2.157035,4.39255 3.726339,6.10663 8.089516,8.83582 l 5.41332,3.38605 H 256.01438 468.62584 Z M 312.35821,348.84776 V 317.32537 H 256 199.64179 v 31.52239 31.52239 H 256 312.35821 Z M 176.71642,316.10508 c 0,-16.09718 0.40297,-17.46656 6.02813,-20.48512 2.79585,-1.50029 8.82282,-1.63525 73.25545,-1.64048 64.54487,-0.005 70.45473,0.12665 73.25545,1.63479 5.63215,3.03283 6.02813,4.38541 6.02813,20.59078 v 14.6934 l 66.62687,-0.37419 c 66.15313,-0.37154 66.65487,-0.38893 70.56641,-2.44615 2.16674,-1.13957 5.13338,-3.48781 6.59251,-5.21831 5.67226,-6.72718 5.44777,-3.68681 5.91004,-80.04189 0.23378,-38.61492 0.0546,-77.81605 -0.39819,-87.11361 -0.81608,-16.75752 -0.84873,-16.94043 -3.75108,-21.01492 -1.61031,-2.26066 -4.60511,-4.96998 -6.6551,-6.02072 -3.69469,-1.89375 -5.60652,-1.91045 -218.65265,-1.91045 H 40.597015 l -3.602541,2.2398 c -1.981397,1.23189 -4.752623,3.74764 -6.158279,5.59055 -2.509042,3.28952 -2.571112,3.71983 -3.397095,23.55124 -0.904853,21.72503 -0.241599,153.19784 0.794355,157.46006 0.973437,4.005 6.617387,9.90625 12.075765,12.62627 l 4.961408,2.47238 h 65.722892 65.7229 z M 336.95355,88.208655 c -0.57097,-14.423293 -1.3797,-17.150938 -6.79183,-22.907286 -1.64865,-1.7535 -4.71694,-4.117679 -6.81844,-5.253731 -3.80653,-2.05779 -4.05771,-2.065548 -66.86567,-2.065548 -69.52954,0 -67.33163,-0.180732 -73.7683,6.065849 -6.03465,5.856435 -7.06694,9.107268 -7.66154,24.127492 l -0.5253,13.269349 H 256 337.47753 Z"
   id="path4582"
   inkscape:connector-curvature="0"
   transform="scale(0.83679492)" /><path
   style="fill:#00a3e1;stroke-width:0.95522386"
   d="M 37.731343,476.05984 C 19.109109,469.1026 7.4218302,456.44308 4.8204096,440.41113 3.5042376,432.29987 3.4559288,146.2513 4.7693749,138.2209 6.957293,124.84398 16.540715,112.97968 30.520824,106.34056 c 7.100498,-3.37201 7.309213,-3.40763 23.903199,-4.07898 9.207086,-0.3725 34.90135,-0.70867 57.098367,-0.74704 l 40.35821,-0.0698 V 88.272333 c 0,-20.171009 2.99952,-28.816519 13.85074,-39.921881 6.56786,-6.721684 14.62744,-11.201324 22.90652,-12.731794 3.70035,-0.684046 27.87585,-1.039554 70.69259,-1.039554 h 65.06911 l 7.93481,3.83718 c 5.75228,2.781742 9.55051,5.474825 13.80891,9.791045 10.73595,10.881687 13.93105,20.244992 13.95954,40.908684 l 0.0166,12.029447 54.68657,0.60989 c 32.77726,0.36556 56.36482,1.01312 58.87555,1.61636 12.19903,2.93098 24.51801,13.05517 30.95093,25.43663 l 3.54665,6.82626 v 153.5055 153.5055 l -4.02114,7.72916 c -5.58363,10.73242 -12.39153,17.42377 -23.1307,22.73469 l -8.52498,4.21592 -214.99741,0.25941 C 49.566383,477.83568 42.35065,477.78561 37.731343,476.05984 Z M 471.76785,451.85991 c 4.76779,-2.84531 8.59617,-6.4789 10.40735,-9.87782 1.94809,-3.65586 3.00464,-37.46276 2.1991,-70.3664 l -0.5534,-22.60519 -5.25374,2.26833 c -4.92409,2.12601 -6.42755,2.27073 -23.96224,2.30669 -10.28968,0.0211 -41.34639,0.32358 -69.01492,0.67219 l -50.30642,0.63383 v 18.56509 c 0,20.64346 -0.59709,23.31419 -6.08792,27.23084 l -2.9867,2.13044 h -70.25151 c -65.50897,0 -70.42506,-0.11375 -72.82251,-1.68495 -5.58589,-3.66078 -5.91361,-5.06037 -6.24887,-26.68768 l -0.30798,-19.86618 -54.6174,-0.0439 c -64.44676,-0.0519 -82.042243,-0.7646 -89.143825,-3.61076 l -4.914476,-1.96962 -0.711067,16.9017 c -0.391087,9.29593 -0.480719,28.95244 -0.199181,43.68114 0.628204,32.86461 1.128803,34.58502 12.120247,41.65365 l 4.246715,2.73108 H 255.83546 468.31181 Z M 312.35821,348.84776 V 317.32537 H 256 199.64179 v 31.52239 31.52239 H 256 312.35821 Z M 176.71642,316.10508 c 0,-16.09145 0.3961,-17.43933 6.02813,-20.51287 2.81663,-1.53709 8.34401,-1.66281 73.25545,-1.66618 64.98102,-0.004 70.4358,0.12042 73.25545,1.66255 5.64004,3.08464 6.02813,4.41373 6.02813,20.64448 v 14.7214 l 66.31007,-0.43641 66.31006,-0.43643 4.60649,-2.37058 c 6.47532,-3.33231 10.50964,-8.94359 11.40224,-15.85924 0.39126,-3.03133 0.73845,-42.04881 0.77155,-86.70553 0.0451,-60.90062 -0.22859,-82.15341 -1.09514,-85.03252 -0.68653,-2.281 -2.90569,-5.55639 -5.46921,-8.07227 l -4.3139,-4.23379 -21.73869,-0.80656 c -11.95628,-0.4436 -109.49883,-0.67974 -216.7612,-0.52474 l -195.022515,0.28182 -4.095849,2.87889 c -7.809737,5.48932 -7.904042,5.89142 -8.734063,37.24051 -0.403395,15.23582 -0.470392,54.56717 -0.148881,87.40299 0.666609,68.08096 0.278438,64.89819 8.670006,71.08883 2.542357,1.87555 5.912019,3.8031 7.488139,4.28343 1.5991,0.48735 31.680179,0.91142 68.059703,0.9595 l 65.19403,0.0861 z M 336.87103,88.534178 C 336.18253,74.178358 335.2729,71.07548 330.06194,65.307572 323.23671,57.752854 325.55432,57.98209 256,57.98209 c -68.0025,0 -65.92592,-0.173405 -72.87491,6.085435 -5.95684,5.365231 -7.27257,9.379902 -7.99229,24.386757 l -0.62301,12.990498 H 256 337.49021 Z"
   id="path4584"
   inkscape:connector-curvature="0"
   transform="scale(0.83679492)" /><path
   style="fill:#00a3e1;stroke-width:0.95522386"
   d="M 38.686567,476.49878 C 24.622899,471.88597 14.329091,463.32369 8.3559677,451.27009 L 4.2985075,443.08226 4.0299174,293.99486 C 3.8482789,193.17206 4.0865483,142.79732 4.7659216,138.38929 7.1284269,123.06051 18.983041,109.87 35.451635,104.24559 c 5.918085,-2.02116 7.751009,-2.09827 61.264783,-2.57734 L 151.8806,101.17441 V 88.137149 c 0,-20.081278 3.01331,-28.692517 13.96434,-39.906311 4.24066,-4.342402 7.91125,-6.971781 13.37313,-9.579655 l 7.5282,-3.594467 68.96546,-0.274337 68.96546,-0.274338 7.89059,3.967308 c 5.37902,2.704526 9.76412,5.840849 13.77672,9.85345 10.42692,10.426918 13.72996,20.219872 13.75832,40.79101 l 0.0166,12.033241 54.68657,0.59581 c 33.27131,0.3625 56.32805,0.99422 58.8783,1.61318 12.41369,3.01289 24.42295,12.88718 30.94818,25.4463 l 3.54665,6.82626 v 153.5055 153.5055 l -4.02114,7.72916 c -5.42376,10.42513 -12.45009,17.45761 -22.74772,22.76761 l -8.09681,4.17516 -215.40298,0.21724 C 82.285801,477.71189 41.80186,477.52058 38.686567,476.49878 Z M 473.7813,450.3403 c 6.54583,-4.60421 8.36773,-7.17956 9.55292,-13.50351 1.2633,-6.74078 1.30429,-87.0338 0.0444,-87.0338 -0.50593,0 -3.01658,0.82645 -5.57924,1.83655 -4.38124,1.72692 -8.77091,1.8781 -73.5352,2.53258 l -68.87583,0.69603 -0.2912,19.84805 c -0.32503,22.15346 -0.588,23.09627 -7.48613,26.84001 -3.17023,1.72054 -6.28963,1.78626 -72.60926,1.52974 -64.33003,-0.24883 -69.48095,-0.38881 -71.86729,-1.95299 -5.58549,-3.66113 -5.91317,-5.06071 -6.24843,-26.68768 l -0.30797,-19.86618 -56.05023,-0.0521 c -61.018671,-0.0567 -80.208302,-0.78558 -87.385601,-3.31903 -2.523996,-0.89092 -4.878695,-1.33025 -5.232662,-0.97628 -1.207037,1.20703 -0.677669,83.7722 0.564491,88.0436 1.497473,5.14934 4.080584,8.31837 10.0659,12.34912 l 4.897197,3.29797 H 256.06291 468.68863 Z M 312.35821,348.84776 V 317.32537 H 256 199.64179 v 31.52239 31.52239 H 256 312.35821 Z M 176.71642,316.10508 c 0,-16.09069 0.39519,-17.43575 6.02813,-20.5165 2.81947,-1.54202 8.27853,-1.66619 73.25545,-1.66619 64.97692,0 70.43598,0.12417 73.25545,1.66619 5.63294,3.08075 6.02813,4.42581 6.02813,20.5165 v 14.59343 l 46.56717,-0.10619 c 25.61194,-0.0584 56.06197,-0.3808 67.66674,-0.71642 l 21.09958,-0.61023 4.03544,-2.79863 c 2.21949,-1.53925 5.19036,-4.76313 6.60192,-7.16418 l 2.56647,-4.36555 0.25878,-85.31626 c 0.18096,-59.65969 -0.0563,-86.48626 -0.78885,-89.20689 -0.61848,-2.29685 -2.75227,-5.69514 -5.20886,-8.29568 l -4.16122,-4.40505 -26.57232,-0.62104 c -34.03031,-0.79535 -342.16877,-0.78212 -380.005146,0.0163 -28.603381,0.6036 -28.662609,0.60914 -31.822172,2.97869 -1.741,1.30569 -4.105179,3.88479 -5.253731,5.73135 l -2.088277,3.35737 v 88.35821 88.35821 l 2.088277,3.35737 c 3.552903,5.71208 9.877261,9.63741 17.016201,10.56142 2.626866,0.34001 32.823881,0.67871 67.104478,0.75268 l 62.32836,0.1345 z M 336.77544,88.789258 c -0.79786,-14.677141 -2.49358,-19.826274 -8.23848,-25.016447 -2.00891,-1.814928 -5.50379,-3.844256 -7.76641,-4.509616 -6.05483,-1.78053 -123.59641,-1.729725 -129.7241,0.05607 -5.61329,1.635881 -12.79397,8.696457 -14.18533,13.948082 -0.55654,2.100572 -1.30943,9.299818 -1.6731,15.998326 l -0.66121,12.179107 h 81.4683 81.46829 z"
   id="path4586"
   inkscape:connector-curvature="0"
   transform="scale(0.83679492)" /><path
   style="fill:#00a3e1;stroke-width:0.95522386"
   d="M 36.190831,475.55436 C 23.116511,470.89458 13.604566,462.4251 7.804384,450.27896 L 4.2985075,442.93731 4.0229958,293.44478 C 3.8297248,188.57595 4.0588076,142.13061 4.7904392,137.84964 7.3592637,122.81879 19.195417,109.83735 35.451635,104.22163 c 5.94881,-2.05502 7.473181,-2.11881 61.264783,-2.56393 L 151.8806,101.20122 V 88.150557 c 0,-20.328613 3.06602,-28.929882 14.32836,-40.196153 6.41567,-6.417917 13.61608,-10.631878 21.12445,-12.362865 2.6039,-0.600306 29.4081,-0.974568 70.83705,-0.989083 l 66.64806,-0.02335 7.81992,3.931777 c 5.30792,2.668769 9.71072,5.822586 13.70606,9.817918 10.42769,10.427695 13.72997,20.219467 13.75832,40.795636 l 0.0166,12.037863 54.68657,0.55185 c 60.26168,0.6081 61.25766,0.70169 71.26335,6.69645 6.86544,4.11332 14.23777,12.24353 18.55904,20.46691 l 3.55074,6.75709 v 153.5055 153.5055 l -4.02114,7.72916 c -5.42159,10.42097 -12.44949,17.45623 -22.74772,22.77154 l -8.09681,4.17907 -215.40298,0.24015 -215.402987,0.24013 z M 473.47473,450.61451 c 6.5896,-4.4377 8.88821,-7.93371 9.92376,-15.09334 1.1417,-7.89354 1.16875,-85.71818 0.0298,-85.71818 -0.47862,0 -3.16518,0.86295 -5.97015,1.91768 -4.86121,1.82793 -8.29678,1.95089 -73.39843,2.62687 l -68.29852,0.70918 -0.47761,19.75422 c -0.53228,22.01511 -0.82279,23.0278 -7.67253,26.74527 -3.17023,1.72054 -6.28963,1.78626 -72.60926,1.52974 -64.33003,-0.24883 -69.48095,-0.38881 -71.86729,-1.95299 -5.58171,-3.65866 -5.91328,-5.07002 -6.24739,-26.59258 l -0.30692,-19.77108 -67.03637,-0.43122 c -58.20018,-0.37437 -67.72886,-0.6356 -72.290089,-1.98185 -2.889552,-0.85285 -6.220895,-1.82636 -7.402985,-2.16335 l -2.149253,-0.61271 0.0053,42.38006 c 0.0035,28.05314 0.363095,43.67175 1.063628,46.20096 1.485934,5.36482 4.153885,8.75464 9.808292,12.46213 l 4.883925,3.20232 212.550062,0.0484 212.55007,0.0484 z M 312.35821,348.84776 V 317.32537 H 256 199.64179 v 31.52239 31.52239 H 256 312.35821 Z M 176.71642,315.90761 V 301.1167 l 2.75212,-3.08015 c 2.73929,-3.0658 2.80723,-3.08333 14.56717,-3.75813 15.49008,-0.88884 109.83756,-0.88598 124.41438,0.004 11.21185,0.68436 11.37798,0.72873 14.08955,3.76352 l 2.74394,3.07099 v 14.94684 14.94684 l 65.41552,-0.65397 c 35.97854,-0.35968 66.71354,-0.91357 68.30002,-1.23086 1.58647,-0.3173 4.83255,-2.29165 7.21352,-4.38747 8.27673,-7.28551 7.60826,1.25499 7.60826,-97.2038 v -87.40299 l -2.08234,-3.34328 c -1.1453,-1.83881 -3.42982,-4.63284 -5.07673,-6.20896 l -2.99439,-2.86567 -37.43074,-0.61787 c -47.19712,-0.77909 -279.82849,-0.76231 -346.517951,0.025 l -50.221549,0.59289 -3.357127,2.30192 c -1.84642,1.26606 -4.392991,3.8135 -5.659047,5.66099 l -2.301922,3.35907 v 86.51812 c 0,47.58496 0.32982,88.06584 0.732934,89.95751 0.790984,3.71181 5.966974,9.5693 10.729753,12.14249 4.257121,2.3 15.461559,2.70646 79.522389,2.88478 l 57.55224,0.1602 z M 336.74675,89.743284 c -0.36212,-6.435821 -1.05313,-13.247185 -1.53557,-15.136364 -1.1998,-4.698237 -5.68293,-10.637034 -10.10492,-13.385997 l -3.67342,-2.28361 h -65.5026 -65.5026 l -3.91265,2.589274 c -4.95252,3.277421 -8.39356,7.805628 -9.64658,12.694309 -0.53863,2.101492 -1.27826,9.086567 -1.64362,15.522388 l -0.66429,11.701496 h 81.42232 81.42232 z"
   id="path4588"
   inkscape:connector-curvature="0"
   transform="scale(0.83679492)" /><path
   style="fill:#00a3e1;stroke-width:0.95522386"
   d="M 34.809423,475.08232 C 22.18409,470.0873 14.126694,462.83629 7.9307589,450.89367 L 4.2985075,443.89254 V 289.57422 135.25591 l 3.5784647,-7.24042 c 4.4712698,-9.04685 13.0364618,-17.4133 22.4162438,-21.89612 5.922483,-2.83049 7.597669,-3.16161 19.378426,-3.83043 7.092537,-0.40265 32.991045,-0.75731 57.552238,-0.78813 l 44.65672,-0.056 V 88.272333 c 0,-20.48263 3.18001,-29.465202 14.30928,-40.41938 6.58072,-6.477185 13.52639,-10.505398 21.14078,-12.260795 2.6075,-0.601127 29.395,-0.975176 70.8775,-0.989702 l 66.68577,-0.02335 7.34408,3.54372 c 12.22611,5.899436 22.22437,17.220444 25.97503,29.411504 0.64655,2.101493 1.44743,10.483582 1.77975,18.626866 l 0.60422,14.805964 53.97015,0.58033 c 59.65004,0.64139 61.42601,0.81174 71.50216,6.85826 6.76465,4.05935 14.45437,12.47005 18.68448,20.4363 l 3.4253,6.45065 v 153.90167 153.90167 l -4.0597,7.54574 c -5.49999,10.22278 -13.36344,17.98766 -23.16418,22.8738 l -7.64179,3.80979 -215.88059,0.21232 -215.880601,0.21232 z M 473.79104,450.27125 c 3.7164,-2.54853 5.95253,-4.98723 7.6418,-8.33403 l 2.38806,-4.73125 0.26795,-42.50746 c 0.14737,-23.37911 -0.0879,-43.03659 -0.52275,-43.68331 -0.60945,-0.90631 -1.955,-0.73345 -5.86998,0.75412 -4.85814,1.84595 -8.05841,1.95953 -73.5071,2.60869 l -68.42783,0.67871 -0.47761,19.75422 c -0.53273,22.03378 -0.89985,23.3117 -7.70969,26.83678 -3.06293,1.58552 -7.77026,1.67846 -72.5721,1.43284 -64.33543,-0.24384 -69.48075,-0.38328 -71.86729,-1.9476 -5.53499,-3.62803 -5.8993,-5.12933 -6.41808,-26.44882 l -0.47761,-19.62742 -66.86568,-0.57265 c -57.799542,-0.495 -67.578005,-0.7832 -72.119399,-2.12556 -2.889552,-0.8541 -6.241062,-1.83391 -7.4478,-2.17735 l -2.194069,-0.62443 0.283621,44.30223 0.283621,44.30223 2.38806,4.21984 c 1.43635,2.53811 4.481821,5.66911 7.641791,7.85642 l 5.253732,3.63658 H 256 468.53731 Z M 312.35821,348.84776 V 317.32537 H 256 199.64179 v 31.52239 31.52239 H 256 312.35821 Z M 176.71642,315.90761 V 301.1167 l 2.78657,-3.11954 c 2.69082,-3.01235 3.10932,-3.14088 12.1791,-3.74024 13.35883,-0.8828 116.32176,-0.8518 128.22951,0.0386 9.56377,0.71513 10.0446,0.85882 12.65672,3.78228 l 2.71526,3.0389 v 14.93301 14.93301 l 65.19403,-0.67526 c 38.22337,-0.39591 66.71175,-1.07234 68.8627,-1.63508 4.67583,-1.2233 11.62769,-7.59872 13.23779,-12.14013 0.98533,-2.77918 1.2428,-21.44679 1.2428,-90.1089 v -86.60353 l -2.86568,-4.05273 c -1.57612,-2.229 -4.07897,-4.95293 -5.5619,-6.05319 -2.63372,-1.95408 -3.97382,-2.01814 -57.79105,-2.76261 -69.80079,-0.96557 -372.923961,0.0471 -377.507433,1.26116 -1.852317,0.49064 -5.007876,2.57162 -7.012353,4.62439 -3.372243,3.45349 -3.716515,4.32795 -4.608434,11.70557 -0.606191,5.01418 -0.829719,38.11271 -0.602297,89.18408 0.397505,89.26651 0.0152,83.74421 6.192222,89.44538 6.183908,5.70752 7.379426,6.05676 22.727838,6.63933 7.904801,0.30005 38.12162,0.62243 67.148487,0.71642 l 52.77612,0.1709 z M 336.70956,90.220896 c -0.34236,-6.173135 -1.23388,-13.44194 -1.98116,-16.152899 -1.84057,-6.677195 -7.90829,-12.956368 -14.00307,-14.491048 -5.81031,-1.463054 -122.39114,-1.539599 -128.70618,-0.08451 -5.4601,1.258101 -9.83127,4.604723 -12.93751,9.905127 -2.01371,3.436142 -2.61401,6.127046 -3.34904,15.012407 -0.49255,5.954215 -0.90254,12.222859 -0.91109,13.930322 l -0.0155,3.104485 h 81.26304 81.26303 z"
   id="path4590"
   inkscape:connector-curvature="0"
   transform="scale(0.83679492)" /><path
   style="fill:#00a3e1;stroke-width:0.95522386;stroke:none;stroke-opacity:1"
   d="M 35.656035,475.51219 C 23.141232,470.86119 13.610338,462.35941 7.641791,450.52281 L 4.2985075,443.89254 V 289.57416 135.25579 l 3.5784647,-7.24036 c 4.4696318,-9.04346 13.0395988,-17.41667 22.3965078,-21.88231 5.75379,-2.74604 7.775868,-3.16768 18.423202,-3.84157 6.578019,-0.41634 32.485408,-0.77719 57.571978,-0.80188 l 45.61194,-0.0449 V 88.596271 c 0,-14.851386 1.03071,-20.745644 5.0137,-28.671303 3.24116,-6.449533 12.41232,-16.11036 18.86689,-19.874241 9.3421,-5.447695 9.70281,-5.471623 82.48852,-5.471623 h 66.80356 l 6.94601,3.340902 c 11.71621,5.635268 20.85368,15.402959 25.37551,27.125695 1.67815,4.35058 2.17376,8.219364 2.64377,20.637881 l 0.57845,15.283578 54.44777,0.62467 c 60.00222,0.6884 60.94331,0.77875 71.02454,6.81877 6.55561,3.92769 14.2167,12.18567 18.63577,20.08771 l 3.47401,6.21211 v 154.6774 154.6774 l -4.76633,8.03306 c -5.89741,9.93933 -12.92022,16.57553 -23.02265,21.75527 l -7.70288,3.94944 -215.56751,-0.0498 -215.567491,-0.0498 z M 473.25782,450.40445 c 7.25354,-5.06889 9.23491,-8.43528 10.16147,-17.26457 0.90413,-8.61554 1.15553,-75.98521 0.29952,-80.26525 l -0.57971,-2.8985 -5.39044,1.87858 c -5.08639,1.77261 -8.86578,1.90422 -67.00239,2.33335 -33.88657,0.25013 -64.70408,0.68977 -68.48336,0.97697 l -6.87142,0.52218 -0.29276,19.4386 c -0.32701,21.71305 -0.68827,22.98618 -7.52484,26.51898 -3.06053,1.58154 -7.81812,1.67552 -72.52911,1.43284 -75.48246,-0.28307 -72.52478,-0.0561 -76.02124,-5.83365 -1.58498,-2.61902 -1.90584,-5.64042 -2.40061,-22.60517 -0.31411,-10.77015 -0.63649,-19.6485 -0.71642,-19.72967 -0.0799,-0.0812 -30.34233,-0.33738 -67.24979,-0.56937 -68.780091,-0.43233 -70.001307,-0.49564 -79.336509,-4.11345 -1.649957,-0.63944 -1.711944,1.24823 -1.432836,43.63377 l 0.291729,44.30212 2.396719,4.05654 c 1.318196,2.23109 4.757002,5.76327 7.641791,7.84927 l 5.245073,3.79275 212.380493,0.0308 212.3805,0.0309 5.03414,-3.51794 z M 312.35821,348.84776 V 317.32537 H 256 199.64179 v 31.52239 31.52239 H 256 312.35821 Z M 176.71642,315.59364 v -15.10487 l 2.91668,-2.79436 c 2.56943,-2.46166 3.84888,-2.87195 10.74627,-3.44604 10.19136,-0.84826 121.0499,-0.84826 131.24126,0 6.89739,0.57409 8.17684,0.98438 10.74627,3.44604 l 2.91668,2.79436 v 15.10487 15.10487 l 26.98508,-0.0898 c 14.84179,-0.0494 45.07023,-0.37176 67.17431,-0.71642 l 40.18924,-0.62668 3.91258,-2.58927 c 2.15192,-1.4241 5.11012,-4.15933 6.57378,-6.07828 l 2.6612,-3.48902 0.79964,-21.62321 c 0.4398,-11.89276 0.67405,-51.77832 0.52056,-88.63458 l -0.27907,-67.01133 -3.00711,-4.1528 c -6.30494,-8.70713 1.84527,-7.87105 -84.21784,-8.63942 -41.86509,-0.37377 -139.3741,-0.37689 -216.68672,-0.007 l -140.568372,0.6727 -3.670429,2.96695 c -2.018736,1.63183 -4.53013,4.42586 -5.580877,6.20895 -1.872703,3.17796 -1.909846,4.93111 -1.879999,88.73455 0.01675,47.0209 0.360336,87.11367 0.763534,89.09505 0.8438,4.14659 4.943896,9.20502 10.019083,12.36086 3.293368,2.04788 4.811835,2.21974 24.052606,2.72221 11.295523,0.29498 41.492534,0.61737 67.104474,0.71642 l 46.56717,0.18009 z M 336.71933,91.176119 C 335.62276,72.485894 333.19324,66.412687 324.8511,61.508439 l -4.37349,-2.571126 H 256 191.52239 l -4.5587,2.679667 c -8.34882,4.907548 -10.52659,10.336518 -11.6657,29.081527 l -0.65304,10.746273 h 81.33843 81.33843 z"
   id="path4592"
   inkscape:connector-curvature="0"
   transform="scale(0.83679492)" /><path
   style="fill:#00a3e1;stroke:none;stroke-width:0.95522386;stroke-opacity:1"
   d="M 34.311718,475.06913 C 21.505326,469.60419 12.780826,461.39531 7.1355941,449.49912 L 3.7870574,442.44275 4.0427824,288.42138 4.2985075,134.4 8.0001198,127.47234 c 4.6632582,-8.7274 13.4020752,-17.10535 22.2435332,-21.32499 8.662761,-4.13436 15.792041,-4.57854 74.592167,-4.64745 l 47.04478,-0.0551 V 88.596271 c 0,-14.492681 1.01135,-20.633723 4.64806,-28.223533 3.67904,-7.678176 14.28225,-18.043799 22.57582,-22.069976 l 6.68656,-3.246046 69.71416,-0.274542 69.71415,-0.274543 6.98673,3.453029 c 9.78293,4.834981 18.41435,13.139505 22.66437,21.805985 4.22982,8.625265 5.24895,14.213198 5.24895,28.779933 v 11.676862 l 5.01493,0.60237 c 2.75821,0.3313 22.20895,0.62018 43.22388,0.64197 21.01492,0.0218 44.77941,0.42198 52.80996,0.88933 13.35481,0.7772 15.13588,1.10001 20.86753,3.78217 7.85117,3.67401 17.73829,13.34612 22.63579,22.14356 l 3.50761,6.30075 v 154.74082 154.74081 l -4.76633,8.03306 c -5.84167,9.84537 -12.99709,16.65536 -22.92995,21.82301 l -7.4611,3.8817 -216.21236,-0.0258 -216.212345,-0.0258 z M 472.31495,451.08648 c 2.26702,-1.55976 5.20902,-4.12793 6.53778,-5.70708 4.79629,-5.70006 4.92663,-7.06441 4.94812,-51.79324 0.011,-22.94016 -0.30756,-42.03791 -0.70796,-42.43945 -0.4004,-0.40155 -3.10234,0.0183 -6.00431,0.93312 -4.70846,1.48422 -12.51985,1.73879 -72.58317,2.36555 -40.35561,0.42111 -67.66813,1.06662 -68.20905,1.61207 -0.4962,0.50034 -1.03453,9.36916 -1.19629,19.70848 -0.32851,20.99774 -0.72611,22.36493 -7.52618,25.87886 -3.06053,1.58154 -7.81812,1.67552 -72.52911,1.43284 -62.66998,-0.23503 -69.53119,-0.41183 -72.17224,-1.85972 -4.82774,-2.6467 -5.46587,-5.26815 -6.23749,-25.62388 -0.38834,-10.24478 -0.74383,-19.12312 -0.78997,-19.72966 -0.0622,-0.81801 -17.4134,-1.21172 -67.18836,-1.5246 -57.703215,-0.3627 -67.85064,-0.63535 -72.430424,-1.94615 -2.929267,-0.83839 -5.938222,-1.6568 -6.686567,-1.81869 -1.161897,-0.25135 -1.360625,6.12342 -1.360625,43.64597 0,39.20553 0.171346,44.24908 1.590144,46.80597 1.681592,3.03047 6.067686,7.40273 10.827767,10.79361 l 2.865672,2.04139 212.365203,0.0303 212.36521,0.0303 4.12185,-2.83591 z M 312.35821,348.84776 V 317.32537 H 256 199.64179 v 31.52239 31.52239 H 256 312.35821 Z M 176.71642,315.59364 v -15.10487 l 2.90517,-2.78332 c 4.10215,-3.93012 7.70614,-4.12475 76.37841,-4.12475 68.67227,0 72.27626,0.19463 76.37841,4.12475 l 2.90517,2.78332 v 15.10487 15.10487 l 23.16418,-0.089 c 12.7403,-0.0489 42.97208,-0.37357 67.18174,-0.72137 l 44.01754,-0.63238 3.90517,-2.58432 c 2.14784,-1.42138 5.12016,-4.17726 6.60516,-6.1242 l 2.70001,-3.53989 0.76798,-32.0798 c 0.42239,-17.64385 0.63857,-57.44095 0.4804,-88.43797 l -0.28759,-56.35821 -3.14815,-4.53607 c -1.73148,-2.49484 -4.5249,-5.28887 -6.2076,-6.20895 -2.8891,-1.57975 -15.08698,-1.67289 -219.09018,-1.67289 H 39.34148 l -3.67074,2.92704 c -2.018907,1.60987 -4.530441,4.61882 -5.581188,6.68657 -1.87218,3.68422 -1.906777,5.46101 -1.727194,88.7038 0.100791,46.71935 0.453967,86.54661 0.784836,88.50501 0.738358,4.3703 5.815465,10.50655 10.701864,12.93437 3.194102,1.58701 6.774206,1.85638 30.837509,2.32024 14.973134,0.28863 44.955223,0.61102 66.626863,0.71642 l 39.40299,0.19163 z M 337.17141,99.773134 c -0.11372,-8.403287 -2.04546,-24.559262 -3.29456,-27.553825 -0.85567,-2.051366 -2.931,-5.163447 -4.61183,-6.915733 -6.4165,-6.689267 -2.90278,-6.323033 -64.19039,-6.690537 -30.47164,-0.18272 -59.79643,-0.03654 -65.16618,0.324856 -8.55757,0.575936 -10.26793,0.995108 -13.85074,3.394517 -7.80164,5.224767 -9.55117,9.982634 -10.7818,29.321319 l -0.62305,9.791049 h 81.27059 c 76.77235,0 81.26933,-0.0925 81.24796,-1.671646 z"
   id="path4594"
   inkscape:connector-curvature="0"
   transform="scale(0.83679492)" /></svg>